<svg width="95" height="111" viewBox="0 0 95 111" fill="none" xmlns="http://www.w3.org/2000/svg">
  <path
    d="M59.6328 22.84C62.4078 16.1408 59.2265 8.46043 52.5273 5.68545C45.828 2.91047 38.1477 6.09172 35.3727 12.791C32.5977 19.4902 35.779 27.1706 42.4782 29.9456C49.1774 32.7205 56.8578 29.5393 59.6328 22.84Z"
    fill="white" />
  <path
    d="M47.4998 84.0563C40.2497 84.0563 34.3706 89.9332 34.3706 97.1855C34.3706 104.436 40.2476 110.315 47.4998 110.315C54.7499 110.315 60.629 104.438 60.629 97.1855C60.629 89.9332 54.7499 84.0563 47.4998 84.0563Z"
    fill="white" />
  <path
    d="M19.697 26.2878C13.4187 22.6628 5.38905 24.8133 1.764 31.0937C-1.86105 37.3742 0.289472 45.4017 6.56993 49.0268C12.8483 52.6518 20.8779 50.5013 24.503 44.2208C28.128 37.9425 25.9754 29.915 19.697 26.2878Z"
    fill="white" />
  <path
    d="M88.4314 65.9732C82.153 62.3482 74.1234 64.4987 70.4984 70.7792C66.8733 77.0596 69.0238 85.0871 75.3043 88.7122C81.5827 92.3372 89.6123 90.1867 93.2373 83.9062C96.8624 77.6279 94.7097 69.5983 88.4314 65.9732Z"
    fill="white" />
  <path
    d="M6.56801 65.9733C0.289658 69.5984 -1.86298 77.628 1.76207 83.9063C5.38712 90.1847 13.4167 92.3373 19.6951 88.7123C25.9734 85.0872 28.1261 77.0576 24.501 70.7792C20.876 64.4988 12.8464 62.3461 6.56801 65.9733Z"
    fill="white" />
  <path
    d="M88.4314 49.0268C94.7098 45.4017 96.8624 37.3721 93.2374 31.0938C89.6123 24.8154 81.5827 22.6628 75.3043 26.2878C69.026 29.9129 66.8733 37.9425 70.4984 44.2208C74.1234 50.5013 82.151 52.6539 88.4314 49.0268Z"
    fill="white" />
  <path
    d="M59.6328 62.5244C62.4078 55.8251 59.2265 48.1448 52.5273 45.3698C45.828 42.5948 38.1477 45.776 35.3727 52.4753C32.5977 59.1745 35.779 66.8549 42.4782 69.6299C49.1774 72.4049 56.8578 69.2236 59.6328 62.5244Z"
    fill="white" />
</svg>