<svg width="87" height="103" viewBox="0 0 87 103" fill="none" xmlns="http://www.w3.org/2000/svg">
  <path
    d="M2.7601 37.1214H19.7447C21.823 37.1214 23.7239 35.9457 24.6551 34.0855L37.8336 7.71413C40.1686 3.04214 46.8353 3.04214 49.1682 7.71413L62.3468 34.0855C63.2759 35.9457 65.1769 37.1214 67.2572 37.1214H84.2418C86.0327 37.1214 87.1982 35.2367 86.3974 33.6332L71.3872 3.59837C70.4581 1.73814 68.5571 0.5625 66.4768 0.5625H20.521C18.4427 0.5625 16.5418 1.73814 15.6106 3.59837L0.602393 33.6352C-0.196307 35.2367 0.969142 37.1214 2.7601 37.1214Z"
    fill="white" />
  <path
    d="M84.2397 65.8787H67.2551C65.1769 65.8787 63.2759 67.0543 62.3448 68.9145L49.1683 95.2859C46.8333 99.9579 40.1666 99.9579 37.8336 95.2859L24.6551 68.9145C23.726 67.0543 21.825 65.8787 19.7447 65.8787H2.76012C0.969153 65.8787 -0.196298 67.7633 0.60444 69.3669L15.6127 99.4037C16.5418 101.264 18.4428 102.44 20.523 102.44H66.4789C68.5571 102.44 70.4581 101.264 71.3892 99.4037L86.3975 69.3669C87.1962 67.7633 86.0307 65.8787 84.2397 65.8787Z"
    fill="white" />
  <path
    d="M43.5001 61.6895C49.1276 61.6895 53.6896 57.1275 53.6896 51.5C53.6896 45.8724 49.1276 41.3104 43.5001 41.3104C37.8726 41.3104 33.3105 45.8724 33.3105 51.5C33.3105 57.1275 37.8726 61.6895 43.5001 61.6895Z"
    fill="white" />
</svg>