<svg width="113" height="134" viewBox="0 0 113 134" fill="none" xmlns="http://www.w3.org/2000/svg">
  <path
    d="M56.3451 23.8725C62.9372 23.8725 68.2816 18.5282 68.2816 11.9363C68.2816 5.34431 62.9372 0 56.3451 0C49.7531 0 44.4087 5.34431 44.4087 11.9363C44.4087 18.5309 49.7531 23.8725 56.3451 23.8725Z"
    fill="white" />
  <path
    d="M92.755 89.2444C91.5419 86.8157 89.0599 85.2808 86.3438 85.2808H26.3423C23.6289 85.2808 21.1469 86.8157 19.9312 89.2444L0.335904 128.461C-0.709567 130.554 0.812081 133.015 3.15042 133.015H25.3261C28.0395 133.015 30.5215 131.48 31.7373 129.051L37.7148 117.089L48.941 94.6207C51.9896 88.5209 60.6939 88.5209 63.7398 94.6207L74.966 117.089L80.9436 129.051C82.1566 131.48 84.6386 133.015 87.3547 133.015H109.53C111.869 133.015 113.39 130.554 112.345 128.461L92.755 89.2444Z"
    fill="white" />
  <path
    d="M3.15169 78.4431H25.3274C28.0408 78.4431 30.5228 76.9082 31.7385 74.4794L37.7161 62.5166L48.9422 40.0487C51.9909 33.9489 60.6951 33.9489 63.7411 40.0487L74.9673 62.5166L80.9448 74.4794C82.1579 76.9082 84.6399 78.4431 87.356 78.4431H109.532C111.87 78.4431 113.392 75.9824 112.346 73.8889L92.7509 34.6724C91.5379 32.2437 89.0559 30.7087 86.3398 30.7087H26.3409C23.6275 30.7087 21.1455 32.2437 19.9298 34.6724L0.334506 73.8889C-0.708305 75.9824 0.813346 78.4431 3.15169 78.4431Z"
    fill="white" />
</svg>