<svg width="93" height="111" viewBox="0 0 93 111" fill="none" xmlns="http://www.w3.org/2000/svg">
  <path
    d="M57.4399 55.5C57.4399 49.4581 52.5421 44.5603 46.5002 44.5603C40.4584 44.5603 35.5605 49.4581 35.5605 55.5C35.5605 61.5419 40.4584 66.4397 46.5002 66.4397C52.5421 66.4397 57.4399 61.5419 57.4399 55.5Z"
    fill="white" />
  <path
    d="M4.84607 40.0103H17.3761C19.9573 40.0103 22.0508 37.9169 22.0508 35.3356V24.9734C22.0508 23.7134 23.0723 22.6919 24.3323 22.6919H34.6945C37.2758 22.6919 39.3692 20.5984 39.3692 18.0172V5.48719C39.3692 2.90594 37.2758 0.8125 34.6945 0.8125H4.84607C3.87701 0.8125 2.97795 1.10562 2.23201 1.61094C0.989511 2.45094 0.171387 3.87281 0.171387 5.48719V35.3356C0.171387 37.9169 2.26264 40.0103 4.84607 40.0103Z"
    fill="white" />
  <path
    d="M90.7688 1.61094C90.0229 1.10781 89.1238 0.8125 88.1547 0.8125H58.3085C55.7272 0.8125 53.6338 2.90594 53.6338 5.48719V18.0172C53.6338 20.5984 55.7272 22.6919 58.3085 22.6919H68.6707C69.9307 22.6919 70.9522 23.7134 70.9522 24.9734V35.3356C70.9522 37.9169 73.0457 40.0103 75.6269 40.0103H88.1569C90.7382 40.0103 92.8316 37.9169 92.8316 35.3356V5.48719C92.8294 3.87281 92.0135 2.45094 90.7688 1.61094Z"
    fill="white" />
  <path
    d="M88.1545 70.9897H75.6245C73.0432 70.9897 70.9498 73.0832 70.9498 75.6644V86.0266C70.9498 87.2866 69.9282 88.3082 68.6682 88.3082H58.306C55.7248 88.3082 53.6313 90.4016 53.6313 92.9829V105.513C53.6313 108.094 55.7248 110.188 58.306 110.188H88.1545C89.1235 110.188 90.0226 109.894 90.7685 109.389C92.011 108.549 92.8292 107.127 92.8292 105.513V75.6666C92.8292 73.0832 90.7357 70.9897 88.1545 70.9897Z"
    fill="white" />
  <path
    d="M34.6921 88.3082H24.3299C23.0699 88.3082 22.0483 87.2866 22.0483 86.0266V75.6644C22.0483 73.0832 19.9549 70.9897 17.3736 70.9897H4.84363C2.26238 70.9897 0.168945 73.0832 0.168945 75.6644V105.513C0.168945 107.127 0.98707 108.549 2.22957 109.389C2.97551 109.892 3.87457 110.188 4.84363 110.188H34.6921C37.2733 110.188 39.3668 108.094 39.3668 105.513V92.9829C39.3668 90.4016 37.2755 88.3082 34.6921 88.3082Z"
    fill="white" />
</svg>